<svg width="80" height="40" viewBox="0 0 80 40" fill="none" xmlns="http://www.w3.org/2000/svg">
<path d="M69.6114 15.5191C71.6201 13.4841 73.8459 14.0827 73.8459 16.0564C73.8459 17.9828 71.5651 20.0623 68.8145 21.6741C68.5479 21.8272 68.2319 22.0054 67.9131 22.1641C67.806 21.6797 67.7455 21.1424 67.7455 20.5439C67.7455 18.8987 68.4352 16.7106 69.6114 15.5191ZM58.8973 36.292C56.229 38.9951 52.8189 35.5487 56.7979 31.5177C57.6992 30.6046 59.1775 29.5997 60.7164 28.6838C61.593 30.8886 60.8977 34.257 58.8973 36.292ZM41.9014 25.4685C39.8542 25.4685 38.5298 22.9825 38.9392 19.912C39.3404 16.8414 41.3271 14.3555 43.3716 14.3555C45.2649 14.3555 46.5399 16.4907 46.3943 19.2466C46.3421 19.6447 46.2953 20.0289 46.2569 20.3991C45.7183 23.2359 43.8332 25.4685 41.9014 25.4685ZM14.8785 24.4468C14.2108 25.1233 13.3946 25.4824 12.5675 25.4824C11.7954 25.4824 11.1276 25.1289 10.5753 24.5693C8.68197 22.6513 8.84685 17.9438 11.2787 15.4718C11.9685 14.773 12.8011 14.3666 13.6584 14.3666C14.4251 14.3666 15.0983 14.7118 15.6507 15.2713C17.4341 17.078 17.5385 21.7521 14.8785 24.4468ZM78.2261 25.4518C78.2261 25.4518 77.4676 24.3772 77.234 24.071C77.0747 23.8706 76.8768 23.6256 76.3547 23.9875C75.2033 24.7697 73.9063 25.4852 72.3071 25.4852C71.087 25.4852 70.018 25.1706 69.2239 24.4886C69.5564 24.3355 69.9054 24.1657 70.2626 23.9736C72.1504 22.938 73.725 21.624 74.4834 20.8557C78.1573 17.1337 77.006 11.5828 72.5296 11.5828C68.3006 11.5828 64.9591 15.7585 64.9591 20.3964C64.9591 21.0951 65.0416 22.0917 65.3384 23.1523C65.0883 23.2748 63.4148 24.0961 61.4061 25.2179C59.5183 23.7815 56.5725 24.4273 56.5725 24.4273C59.3067 20.4966 63.4231 14.3555 63.7721 13.8488C64.0221 13.4869 63.9836 13.1278 63.7418 12.5599C63.4313 11.8779 63.1208 11.7526 62.6949 11.7526H54.1489C53.8686 11.7526 53.6488 11.8834 53.5663 12.2064C53.4894 12.5209 53.308 13.6178 53.2778 13.9936C53.2393 14.3694 53.5883 14.6004 53.951 14.6004H60.1421L54.5418 22.7153C54.5033 22.7459 54.4649 22.7849 54.4347 22.8378C53.624 24.0265 52.3737 25.694 50.8734 25.694C49.9418 25.694 48.7905 25.0175 48.7905 22.8071C48.7905 20.6413 49.6533 16.0675 50.2826 12.5042C50.3513 12.1201 50.2221 11.7442 49.6148 11.7442H48.1007C47.7517 11.7442 47.5539 11.9586 47.5017 12.2593C47.411 12.8049 47.3203 13.3422 47.2296 13.8572C46.4795 12.4068 45.2814 11.5856 43.5474 11.5856C41.9399 11.5856 40.3736 12.1924 39.0931 13.4814C35.8945 16.7217 36.5018 22.0026 33.7429 24.7976C32.5531 26.003 31.2038 25.6355 31.2038 23.2637C31.2038 20.555 32.2261 17.5374 33.4022 14.6728C33.6055 14.1662 33.3857 13.743 33.1686 13.4145C32.8581 12.9552 32.7372 12.7074 32.1766 12.7074C31.3055 12.7074 29.9123 13.267 27.1232 13.267C26.5324 13.267 25.9636 13.2447 25.4552 13.2058C25.4854 12.7826 25.4937 12.4987 25.5019 12.3929C25.5184 11.9948 25.381 11.7415 24.9633 11.7415H23.5399C23.0233 11.7415 22.8969 11.9864 22.8365 12.3929C22.5946 14.1188 22.133 20.4604 18.9949 23.6395C18.6321 24.007 18.4123 24.1239 18.4123 24.1239C19.1927 22.5733 19.6159 20.5383 19.6159 18.9265C19.6159 14.3889 16.9642 11.58 13.6365 11.58C12.6197 11.58 11.5453 11.9113 10.5368 12.546C11.0067 9.78165 11.4381 7.19548 11.5893 6.32136C11.7184 5.58365 11.4519 5.19948 11.2623 4.89326C10.9408 4.38939 10.6577 4.16669 10.2345 4.16669H5.32403C5.04374 4.16669 4.83215 4.36712 4.76345 4.68169C4.68102 5.04916 4.50515 6.01793 4.48317 6.46334C4.46668 6.85586 4.73323 7.00062 5.04374 7.00062H8.63526C8.0582 10.5695 6.96728 17.4873 6.63478 19.2216C6.21985 21.4319 4.66453 24.1406 2.05127 25.101C1.72427 25.2235 1.58962 25.5242 1.71053 25.8777C1.83143 26.2313 2.27934 27.1527 2.41399 27.3893C2.55139 27.6343 2.85366 27.7958 3.14219 27.6955C4.49965 27.2112 5.74171 26.4289 6.72546 25.4379C6.96728 25.1929 7.2036 24.9145 7.42893 24.6166C8.60228 27.2891 10.9902 28.2634 13.4386 28.2634C16.203 28.2634 19.19 27.2891 21.2811 25.1623C23.7295 22.6902 24.7517 18.5924 25.1832 15.6889C25.7905 15.7724 26.4802 15.842 27.1369 15.842C28.8186 15.842 30.2283 15.4801 30.2283 15.4801C30.2283 15.4801 28.5329 20.04 28.5329 23.4029C28.5329 27.1945 30.3218 28.269 32.3057 28.269C34.3447 28.269 35.7764 26.7184 36.7986 24.8004C37.0651 25.3989 37.4581 26.1143 37.9967 26.6572C38.92 27.5925 40.0658 28.269 41.7173 28.269C43.6051 28.269 45.2264 27.1638 46.3778 25.4685C46.5811 26.1811 46.8999 26.7824 47.3313 27.2195C47.9139 27.8097 48.9828 28.2718 50.3238 28.2718C52.6265 28.2718 53.962 26.5208 57.5453 26.5208C57.9987 26.5208 58.4081 26.5904 58.7791 26.7212C57.1358 27.7345 55.575 28.8258 54.6188 29.7918C51.6648 32.7844 51.5274 36.7235 53.4674 38.6888C55.8169 41.069 59.1666 39.8775 61.2577 37.759C63.7061 35.2787 64.4178 30.5907 62.9999 27.381C64.7118 26.4679 66.1435 25.7914 66.4842 25.6299C67.5532 27.1109 69.3256 28.2718 72.2493 28.2718C74.3405 28.2718 76.4481 27.5202 78.0914 26.2619C78.3552 26.0837 78.4074 25.7135 78.2261 25.4518Z" fill="#212123"/>
</svg>
