<svg width="24" height="24" viewBox="0 0 24 24" fill="none" xmlns="http://www.w3.org/2000/svg">
<path fill-rule="evenodd" clip-rule="evenodd" d="M23.8258 11.9947C23.8258 5.46056 18.5289 0.163574 11.9947 0.163574C5.46056 0.163574 0.163574 5.46056 0.163574 11.9947C0.163574 18.5289 5.46056 23.8258 11.9947 23.8258C11.199 23.8258 10.4219 23.7467 9.67019 23.597V14.5885H7.74066V11.3718H9.67019V9.44094C9.67019 6.81679 10.7595 5.25659 13.8548 5.25659H16.4317V8.47349H14.8209C13.616 8.47349 13.5363 8.92277 13.5363 9.76167L13.532 11.3716H16.4498L16.1083 14.5879H13.532V23.7265C13.0765 23.7856 12.6181 23.8184 12.1589 23.8247C18.6174 23.7369 23.8258 18.474 23.8258 11.9947Z" fill="url(#paint0_linear_3082_4203)"/>
<defs>
<linearGradient id="paint0_linear_3082_4203" x1="11.9947" y1="-0.0520009" x2="11.9947" y2="24.8348" gradientUnits="userSpaceOnUse">
<stop stop-color="#00B2FF"/>
<stop offset="1" stop-color="#006AFF"/>
</linearGradient>
</defs>
</svg>
