<svg width="82" height="40" viewBox="0 0 82 40" fill="none" xmlns="http://www.w3.org/2000/svg">
<path d="M72.0369 11.1714C67.0364 11.1714 62.9672 15.2628 62.9672 20.2925C62.9672 25.3222 67.0364 29.4135 72.0369 29.4135C77.0363 29.4135 81.1042 25.3222 81.1042 20.2925C81.1042 15.2628 77.0363 11.1714 72.0369 11.1714ZM72.0369 25.0908C69.407 25.0908 67.2651 22.9359 67.2651 20.2925C67.2651 17.6479 69.407 15.4942 72.0369 15.4942C74.6644 15.4942 76.8075 17.6479 76.8075 20.2925C76.8075 22.9371 74.6656 25.0908 72.0357 25.0908H72.0369ZM45.3299 18.4453L43.744 17.6491C43.0554 17.3062 42.6237 17.0408 42.4501 16.8446C42.2847 16.6709 42.1904 16.4412 42.1862 16.2011C42.1862 15.8934 42.3246 15.6339 42.5968 15.4319C42.8666 15.2205 43.2501 15.1242 43.7369 15.1242C44.6272 15.1242 45.6137 15.6621 46.6999 16.746L49.3767 14.0533C48.719 13.1566 47.8589 12.4283 46.8665 11.9277C45.8872 11.4344 44.8051 11.1801 43.7088 11.1855C42.0748 11.1855 40.7258 11.6682 39.6748 12.6405C38.625 13.6129 38.0971 14.7813 38.0971 16.1518C38.0971 18.2773 39.4871 20.0482 42.2765 21.4539L43.7369 22.1879C44.9956 22.8255 45.622 23.4749 45.622 24.1467C45.622 24.5107 45.4472 24.8254 45.1 25.1049C44.7528 25.3856 44.2929 25.5183 43.7229 25.5183C43.195 25.5183 42.5897 25.3363 41.9082 24.9663C41.2291 24.6024 40.625 24.1131 40.1276 23.5243L37.4649 26.4413C38.9663 28.4142 40.9686 29.4077 43.4859 29.4077C45.378 29.4077 46.8876 28.8898 48.0067 27.8611C49.1328 26.8335 49.6958 25.5465 49.6958 24.0069C49.6958 22.8525 49.3838 21.8391 48.7644 20.9783C48.1392 20.1175 46.992 19.279 45.3299 18.4464V18.4453ZM18.4023 27.4266V11.5343H14.0974V12.5983C12.6468 11.6648 10.9584 11.1695 9.23409 11.1714C4.23474 11.1714 0.166748 15.2628 0.166748 20.2925C0.166748 25.3222 4.23474 29.4135 9.23527 29.4135C10.9389 29.4161 12.6082 28.9335 14.0481 28.022C14.0481 28.1617 14.0411 28.2874 14.0411 28.3719C14.0411 31.0153 11.8992 33.1702 9.27046 33.1702C8.37664 33.1682 7.5016 32.9134 6.74615 32.4351L4.61714 36.1848C6.02101 37.0421 7.63306 37.497 9.2775 37.5C14.278 37.5 18.4023 33.4075 18.4023 28.3778C18.4023 28.1828 18.4152 27.6086 18.4023 27.4266ZM9.23527 25.0896C6.60773 25.0896 4.46465 22.9359 4.46465 20.2925C4.46465 17.6479 6.60656 15.4942 9.23527 15.4942C11.864 15.4942 14.0059 17.6479 14.0059 20.2925C14.0059 22.9359 11.864 25.0908 9.23527 25.0908V25.0896ZM35.5505 11.5284H31.2245V20.1997C31.2315 21.4316 31.2315 23.5583 30.3283 24.4672C29.8966 24.9006 29.4239 25.2928 28.4292 25.2928C27.4274 25.2928 26.9547 24.9006 26.5242 24.4672C25.6198 23.5571 25.6269 21.4245 25.6327 20.1997V11.5284H21.3079V20.1739C21.2938 21.9565 21.2727 25.2658 23.4427 27.4618C24.7154 28.7489 26.2321 29.4065 28.4221 29.4065C30.6133 29.4065 32.1288 28.7559 33.4016 27.4618C35.5716 25.2658 35.5505 21.9495 35.5364 20.1739L35.5505 11.5273V11.5284ZM60.0652 24.3146C59.718 24.58 58.8758 25.1683 57.9233 25.0356C57.1444 24.9299 56.5121 24.3569 56.4148 22.4403V15.2499H61.4986V11.5143H56.4148V6.66669H52.1028V7.6179H52.0958V21.8743C52.0958 24.1408 52.6659 29.4065 57.9162 29.4065C60.5731 29.3654 62.186 27.9174 62.8616 27.3514L62.952 27.281L60.3643 24.0774C60.3573 24.0832 60.1766 24.23 60.0652 24.3146Z" fill="#F45D48"/>
</svg>
