<svg width="80" height="40" viewBox="0 0 80 40" fill="none" xmlns="http://www.w3.org/2000/svg">
<path d="M0 21.6423C0.0479578 21.3689 0.100086 21.0963 0.144569 20.8208C0.494869 18.629 1.55828 16.8448 3.21943 15.3958C4.58658 14.205 6.11011 13.2388 7.64267 12.2851C9.72641 10.9871 11.749 9.59938 13.6791 8.08089C13.7653 8.01342 13.8313 7.86525 13.832 7.75465C13.8424 6.4191 13.839 5.08285 13.839 3.7473V3.43845H18.805V3.72156C18.805 9.25993 18.8127 14.799 18.8009 20.3374C18.7967 22.4596 18.4526 24.5228 17.4462 26.4211C16.0937 28.9726 14.0176 30.5481 11.1332 30.9842C9.07446 31.2959 7.03243 31.2047 5.11272 30.3672C2.14559 29.0734 0.445521 26.7779 0.0590785 23.5392C0.051433 23.4759 0.0201562 23.414 0 23.3521V21.6423ZM13.839 14.0324C12.7074 15.0056 11.4876 15.7304 10.2456 16.4281C8.84926 17.212 7.512 18.0829 6.2936 19.134C4.8639 20.3673 4.28076 23.4029 6.15459 25.0542C7.82686 26.5275 11.3639 26.9045 13.0126 23.9524C13.5853 22.9285 13.8084 21.8016 13.823 20.6434C13.8508 18.5065 13.8355 16.3697 13.8383 14.2335L13.839 14.0324Z" fill="#1562E7"/>
<path d="M41.4906 38.6366C41.4823 38.5399 41.4677 38.4432 41.4677 38.3472C41.4663 32.7191 41.4586 27.0917 41.4711 21.4643C41.4753 19.326 41.8166 17.2476 42.7848 15.3131C43.9969 12.8938 45.943 11.415 48.5918 10.9051C50.5387 10.5308 52.4841 10.5865 54.3885 11.1854C57.5419 12.1766 59.83 15.0203 60.1372 18.2917C60.4743 21.8872 59.1606 24.7538 56.3436 26.9693C55.0258 28.005 53.5975 28.8697 52.1637 29.7294C50.1932 30.9112 48.3444 32.2656 46.5783 33.7368C46.4136 33.8731 46.3434 34.0108 46.3455 34.2293C46.3552 35.6991 46.3503 37.1675 46.3503 38.6366H41.4906ZM46.3496 27.8596C46.4456 27.7776 46.497 27.7296 46.5519 27.6864C47.1149 27.2378 47.6459 26.7397 48.2485 26.3544C49.2646 25.7054 50.342 25.151 51.3658 24.5131C52.3228 23.917 53.2723 23.2979 54.0695 22.4861C55.6966 20.8306 55.641 18.2673 53.993 16.698C52.3319 15.1155 48.4744 14.861 46.9932 18.1783C46.5658 19.1354 46.3879 20.151 46.3656 21.1874C46.335 22.6378 46.3524 24.0895 46.3503 25.5405C46.3489 26.2959 46.3496 27.0507 46.3496 27.8596Z" fill="#1562E7"/>
<path d="M79.2965 26.2381C79.225 26.5456 79.1673 26.8572 79.0783 27.1605C78.6091 28.7541 77.6973 29.9965 76.1772 30.7331C75.4571 31.0823 74.694 31.2646 73.8877 31.2639C70.0087 31.2604 66.1283 31.2618 62.2493 31.2618H61.9101V26.3453H62.2083C66.0345 26.3453 69.8614 26.346 73.6869 26.3453C74.1449 26.3453 74.3103 26.1748 74.3896 25.7269C74.5494 24.8261 73.9711 24.1673 73.1753 23.7799C72.556 23.4787 71.8867 23.3834 71.2063 23.3792C69.68 23.3709 68.1696 23.2457 66.7114 22.7588C65.0218 22.1953 63.5845 21.2688 62.61 19.7371C61.9574 18.7111 61.7641 17.5529 61.8211 16.3613C61.9407 13.8405 63.3162 12.194 65.5486 11.202C66.2534 10.8883 67.0277 10.8383 67.7978 10.8383C71.1882 10.8403 74.5779 10.8389 77.9683 10.8396C78.0114 10.8396 78.0552 10.8445 78.1143 10.848V15.7109H77.8057C74.5042 15.7109 71.2028 15.7109 67.902 15.7102C67.5406 15.7102 67.1875 15.7186 66.9575 16.0719C66.6211 16.5881 66.7844 17.2691 67.3432 17.6231C67.9493 18.0057 68.627 18.2033 69.329 18.268C70.2742 18.3563 71.2278 18.3542 72.1738 18.4419C74.2631 18.6373 76.1376 19.335 77.5847 20.9286C78.4861 21.9192 79.0401 23.0892 79.2409 24.4192C79.2493 24.4755 79.2785 24.5284 79.2972 24.5819L79.2965 26.2381Z" fill="#1562E7"/>
<path d="M36.8448 3.31185C36.9908 3.36263 37.1402 3.40576 37.2813 3.46628C39.1524 4.269 39.4526 6.08591 38.3579 7.36373C37.624 8.22071 36.3701 8.45582 35.3957 7.93899C34.392 7.40824 33.82 6.22225 34.13 5.16911C34.3906 4.28569 35.021 3.71669 35.8891 3.4155C35.9934 3.37933 36.0984 3.34594 36.2033 3.31116L36.8448 3.31185Z" fill="#1562E7"/>
<path d="M26.1027 31.2514H21.2069V30.9571C21.2069 27.573 21.1811 24.1896 21.2138 20.8056C21.2493 17.1961 22.7568 14.3539 25.8094 12.3916C27.0855 11.5715 28.5305 11.1861 30.0165 10.9579C30.4968 10.8849 30.9854 10.8612 31.4935 10.8126V15.5844C30.6921 15.6164 29.9282 15.7965 29.1977 16.1151C27.1328 17.0145 26.1111 18.6012 26.1048 20.8424C26.0972 24.2091 26.1027 27.5744 26.1027 30.9411V31.2514Z" fill="#1562E7"/>
<path d="M38.9682 10.8598H34.0772V31.2541H38.9682V10.8598Z" fill="#1562E7"/>
</svg>
