<svg width="80" height="40" viewBox="0 0 80 40" fill="none" xmlns="http://www.w3.org/2000/svg">
<path fill-rule="evenodd" clip-rule="evenodd" d="M72.7549 21.5141C72.7549 16.8145 70.4785 13.1062 66.1277 13.1062C61.7586 13.1062 59.115 16.8145 59.115 21.4774C59.115 27.0031 62.2359 29.7935 66.7152 29.7935C68.8997 29.7935 70.5519 29.2978 71.8003 28.6002V24.9286C70.5519 25.5528 69.12 25.9383 67.3026 25.9383C65.5219 25.9383 63.9431 25.3142 63.7412 23.1479H72.7182C72.7182 22.9093 72.7549 21.9547 72.7549 21.5141ZM63.6861 19.7701C63.6861 17.6957 64.9528 16.8329 66.1093 16.8329C67.2292 16.8329 68.4224 17.6957 68.4224 19.7701H63.6861Z" fill="#635BFF"/>
<path fill-rule="evenodd" clip-rule="evenodd" d="M52.0288 13.1062C50.2297 13.1062 49.0732 13.9507 48.4307 14.5381L48.192 13.3999H44.1533V34.8051L48.7428 33.8322L48.7611 28.6369C49.422 29.1142 50.395 29.7934 52.0104 29.7934C55.2965 29.7934 58.2888 27.1499 58.2888 21.3305C58.2704 16.0067 55.2414 13.1062 52.0288 13.1062ZM50.9273 25.7547C49.8442 25.7547 49.2017 25.3692 48.7611 24.8919L48.7428 18.0812C49.2201 17.5488 49.8809 17.1816 50.9273 17.1816C52.5979 17.1816 53.7544 19.0541 53.7544 21.459C53.7544 23.9189 52.6162 25.7547 50.9273 25.7547Z" fill="#635BFF"/>
<path fill-rule="evenodd" clip-rule="evenodd" d="M37.8381 12.0231L42.4459 11.0317V7.30511L37.8381 8.27808V12.0231Z" fill="#635BFF"/>
<path d="M42.4459 13.4183H37.8381V29.4813H42.4459V13.4183Z" fill="#635BFF"/>
<path fill-rule="evenodd" clip-rule="evenodd" d="M32.8997 14.7767L32.606 13.4183H28.6407V29.4813H33.2301V18.5952C34.3132 17.1816 36.149 17.4386 36.7181 17.6406V13.4183C36.1307 13.198 33.9828 12.7941 32.8997 14.7767Z" fill="#635BFF"/>
<path fill-rule="evenodd" clip-rule="evenodd" d="M23.7209 9.4346L19.2416 10.3892L19.2233 25.0938C19.2233 27.8107 21.261 29.8117 23.978 29.8117C25.4833 29.8117 26.5848 29.5364 27.1906 29.2059V25.4793C26.6031 25.718 23.7026 26.5624 23.7026 23.8455V17.3284H27.1906V13.4182H23.7026L23.7209 9.4346Z" fill="#635BFF"/>
<path fill-rule="evenodd" clip-rule="evenodd" d="M11.3113 18.0812C11.3113 17.3652 11.8987 17.0899 12.8717 17.0899C14.2669 17.0899 16.0292 17.5121 17.4244 18.2648V13.9507C15.9007 13.3449 14.3954 13.1062 12.8717 13.1062C9.14505 13.1062 6.66675 15.0522 6.66675 18.3015C6.66675 23.3682 13.6427 22.5605 13.6427 24.7451C13.6427 25.5895 12.9084 25.8649 11.8804 25.8649C10.3567 25.8649 8.41074 25.2407 6.86868 24.3963V28.7654C8.57596 29.4997 10.3016 29.8118 11.8804 29.8118C15.6988 29.8118 18.3239 27.921 18.3239 24.6349C18.3056 19.1643 11.3113 20.1373 11.3113 18.0812Z" fill="#635BFF"/>
</svg>
